<svg width="170" height="17" viewBox="0 0 170 17" fill="none" xmlns="http://www.w3.org/2000/svg">
<g clip-path="url(#clip0_18987_317801)">
<g clip-path="url(#clip1_18987_317801)">
<path d="M141.234 3.30495C140.834 3.77783 140.195 4.15081 139.556 4.09753C139.476 3.45814 139.789 2.77878 140.155 2.35918C140.555 1.87298 141.254 1.52664 141.82 1.5C141.887 2.16603 141.627 2.81874 141.234 3.30495ZM141.814 4.22407C140.888 4.17079 140.095 4.75024 139.656 4.75024C139.209 4.75024 138.537 4.25071 137.804 4.26403C136.852 4.27735 135.966 4.81684 135.48 5.67602C134.48 7.39439 135.22 9.93863 136.186 11.3373C136.658 12.03 137.225 12.7892 137.971 12.7626C138.676 12.736 138.956 12.303 139.809 12.303C140.668 12.303 140.914 12.7626 141.66 12.7493C142.433 12.736 142.919 12.0566 143.392 11.3639C143.931 10.578 144.151 9.81208 144.165 9.77212C144.151 9.7588 142.673 9.19267 142.659 7.48763C142.646 6.06232 143.825 5.38297 143.878 5.34301C143.212 4.35728 142.173 4.25071 141.814 4.22407ZM147.162 2.29258V12.676H148.774V9.12607H151.005C153.043 9.12607 154.475 7.7274 154.475 5.70266C154.475 3.67793 153.069 2.29258 151.058 2.29258H147.162ZM148.774 3.65128H150.632C152.03 3.65128 152.83 4.39724 152.83 5.70932C152.83 7.02141 152.03 7.77402 150.625 7.77402H148.774V3.65128ZM157.419 12.7559C158.431 12.7559 159.37 12.2431 159.796 11.4305H159.83V12.676H161.322V7.50761C161.322 6.00904 160.123 5.04329 158.278 5.04329C156.566 5.04329 155.301 6.02236 155.254 7.36774H156.706C156.826 6.72835 157.419 6.30875 158.231 6.30875C159.217 6.30875 159.77 6.76832 159.77 7.61418V8.18696L157.758 8.30685C155.887 8.42008 154.874 9.18601 154.874 10.5181C154.874 11.8635 155.92 12.7559 157.419 12.7559ZM157.852 11.5238C156.992 11.5238 156.446 11.1108 156.446 10.4781C156.446 9.8254 156.972 9.44577 157.978 9.38582L159.77 9.2726V9.85871C159.77 10.8311 158.944 11.5238 157.852 11.5238ZM163.313 15.5C164.885 15.5 165.624 14.9006 166.27 13.0823L169.101 5.1432H167.462L165.564 11.2774H165.531L163.633 5.1432H161.948L164.678 12.7027L164.532 13.1622C164.285 13.9415 163.886 14.2412 163.173 14.2412C163.047 14.2412 162.8 14.2279 162.7 14.2146V15.46C162.794 15.4867 163.193 15.5 163.313 15.5Z" fill="black"/>
</g>
<g clip-path="url(#clip2_18987_317801)">
<path d="M101.859 8.30643V12.7001H100.441V1.83398H104.126C105.024 1.83398 105.874 2.16469 106.536 2.77887C107.197 3.3458 107.528 4.19619 107.528 5.09383C107.528 5.99147 107.197 6.79461 106.536 7.40879C105.874 8.02296 105.071 8.35367 104.126 8.35367L101.859 8.30643ZM101.859 3.15682V6.93635H104.221C104.741 6.93635 105.26 6.74737 105.591 6.36942C106.347 5.66076 106.347 4.47965 105.638 3.77099L105.591 3.72375C105.213 3.3458 104.741 3.10958 104.221 3.15682H101.859Z" fill="#5F6368"/>
<path d="M110.787 5.04688C111.827 5.04688 112.63 5.33034 113.244 5.89727C113.858 6.4642 114.142 7.2201 114.142 8.16499V12.7004H112.819V11.661H112.771C112.205 12.5114 111.401 12.9366 110.456 12.9366C109.653 12.9366 108.945 12.7004 108.378 12.228C107.858 11.7555 107.527 11.0941 107.527 10.3855C107.527 9.62955 107.811 9.01538 108.378 8.54294C108.945 8.0705 109.748 7.88152 110.693 7.88152C111.543 7.88152 112.205 8.02325 112.724 8.35396V8.02325C112.724 7.55081 112.535 7.07837 112.157 6.79491C111.779 6.4642 111.307 6.27522 110.787 6.27522C109.984 6.27522 109.37 6.60593 108.945 7.26735L107.716 6.51144C108.472 5.51932 109.464 5.04688 110.787 5.04688ZM108.992 10.4327C108.992 10.8107 109.181 11.1414 109.464 11.3303C109.795 11.5666 110.173 11.7083 110.551 11.7083C111.118 11.7083 111.685 11.4721 112.11 11.0469C112.582 10.6217 112.819 10.102 112.819 9.53506C112.393 9.20435 111.779 9.01538 110.976 9.01538C110.409 9.01538 109.937 9.15711 109.559 9.44058C109.181 9.6768 108.992 10.0075 108.992 10.4327Z" fill="#5F6368"/>
<path d="M121.796 5.2832L117.119 16.0076H115.702L117.45 12.2753L114.379 5.33045H115.891L118.111 10.669H118.158L120.332 5.33045H121.796V5.2832Z" fill="#5F6368"/>
<path d="M96.2363 7.36153C96.2363 6.93633 96.1891 6.51113 96.1418 6.08594H90.2363V8.49539H93.5907C93.4489 9.25129 93.0237 9.95995 92.3623 10.3852V11.9442H94.3938C95.5749 10.8576 96.2363 9.25129 96.2363 7.36153Z" fill="#4285F4"/>
<path d="M90.2369 13.4575C91.9377 13.4575 93.355 12.8905 94.3944 11.9457L92.3629 10.3866C91.796 10.7645 91.0873 11.0008 90.2369 11.0008C88.6306 11.0008 87.2133 9.91415 86.7409 8.40234H84.6621V10.0086C85.7487 12.1346 87.8747 13.4575 90.2369 13.4575Z" fill="#34A853"/>
<path d="M86.7403 8.40247C86.4568 7.64656 86.4568 6.79617 86.7403 5.99302V4.38672H84.6615C83.7639 6.13475 83.7639 8.21349 84.6615 10.0088L86.7403 8.40247Z" fill="#FBBC04"/>
<path d="M90.1682 3.44166C91.0658 3.44166 91.9162 3.77237 92.5776 4.38654L94.3729 2.59126C93.2391 1.55189 91.7272 0.93772 90.2154 0.984964C87.8532 0.984964 85.68 2.3078 84.6406 4.43378L86.7194 6.04008C87.1446 4.52827 88.5619 3.44166 90.1682 3.44166Z" fill="#EA4335"/>
</g>
<g clip-path="url(#clip3_18987_317801)">
<path d="M55.7346 16.5645V15.5026C55.7346 15.0965 55.4871 14.8305 55.0624 14.8305C54.85 14.8305 54.6191 14.9006 54.4603 15.1315C54.3366 14.9377 54.1593 14.8305 53.8933 14.8305C53.716 14.8305 53.5387 14.8841 53.3985 15.0779V14.8655H53.0273V16.5645H53.3985V15.6263C53.3985 15.3253 53.5572 15.1831 53.8047 15.1831C54.0521 15.1831 54.1758 15.3418 54.1758 15.6263V16.5645H54.5469V15.6263C54.5469 15.3253 54.7243 15.1831 54.9531 15.1831C55.2005 15.1831 55.3243 15.3418 55.3243 15.6263V16.5645H55.7346ZM61.2397 14.8655H60.6377V14.3521H60.2665V14.8655H59.9304V15.2016H60.2665V15.981C60.2665 16.3707 60.4253 16.5995 60.85 16.5995C61.0088 16.5995 61.1861 16.5459 61.3098 16.4758L61.2026 16.1562C61.0954 16.2263 60.9717 16.2449 60.883 16.2449C60.7057 16.2449 60.6356 16.1377 60.6356 15.9624V15.2016H61.2377V14.8655H61.2397ZM64.3902 14.8284C64.1779 14.8284 64.0356 14.9356 63.9469 15.0758V14.8635H63.5758V16.5624H63.9469V15.6057C63.9469 15.3233 64.0706 15.1624 64.3016 15.1624C64.3717 15.1624 64.4603 15.181 64.5325 15.1975L64.6397 14.8428C64.5655 14.8284 64.4603 14.8284 64.3902 14.8284ZM59.6294 15.0057C59.4521 14.882 59.2047 14.8284 58.9387 14.8284C58.5139 14.8284 58.2315 15.0408 58.2315 15.3769C58.2315 15.6593 58.4438 15.8202 58.815 15.8717L58.9923 15.8903C59.1861 15.9253 59.2933 15.9789 59.2933 16.0676C59.2933 16.1913 59.1511 16.28 58.9036 16.28C58.6562 16.28 58.4603 16.1913 58.3366 16.1026L58.1593 16.3851C58.3531 16.5274 58.6191 16.5975 58.8851 16.5975C59.3799 16.5975 59.6645 16.3666 59.6645 16.049C59.6645 15.748 59.4335 15.5892 59.081 15.5356L58.9036 15.5171C58.7449 15.4985 58.6212 15.4635 58.6212 15.3583C58.6212 15.2346 58.7449 15.1645 58.9407 15.1645C59.1531 15.1645 59.3655 15.2532 59.4727 15.3068L59.6294 15.0057ZM69.5036 14.8284C69.2913 14.8284 69.149 14.9356 69.0603 15.0758V14.8635H68.6892V16.5624H69.0603V15.6057C69.0603 15.3233 69.184 15.1624 69.415 15.1624C69.4851 15.1624 69.5737 15.181 69.6459 15.1975L69.7531 14.847C69.681 14.8284 69.5758 14.8284 69.5036 14.8284ZM64.7614 15.715C64.7614 16.2284 65.116 16.5995 65.6645 16.5995C65.9119 16.5995 66.0892 16.5459 66.2665 16.4057L66.0892 16.1047C65.9469 16.2119 65.8067 16.2635 65.6459 16.2635C65.3449 16.2635 65.1325 16.0511 65.1325 15.715C65.1325 15.3954 65.3449 15.1831 65.6459 15.1666C65.8047 15.1666 65.9469 15.2202 66.0892 15.3253L66.2665 15.0243C66.0892 14.882 65.9119 14.8305 65.6645 14.8305C65.116 14.8284 64.7614 15.2016 64.7614 15.715ZM68.1944 15.715V14.8655H67.8232V15.0779C67.6995 14.9191 67.5222 14.8305 67.2913 14.8305C66.8129 14.8305 66.4418 15.2016 66.4418 15.715C66.4418 16.2284 66.8129 16.5995 67.2913 16.5995C67.5387 16.5995 67.716 16.5109 67.8232 16.3521V16.5645H68.1944V15.715ZM66.8315 15.715C66.8315 15.414 67.0253 15.1666 67.3449 15.1666C67.6459 15.1666 67.8583 15.3975 67.8583 15.715C67.8583 16.016 67.6459 16.2635 67.3449 16.2635C67.0273 16.2449 66.8315 16.014 66.8315 15.715ZM62.3902 14.8284C61.8954 14.8284 61.5407 15.1831 61.5407 15.7129C61.5407 16.2449 61.8954 16.5975 62.4088 16.5975C62.6562 16.5975 62.9036 16.5274 63.0995 16.3666L62.9222 16.1006C62.7799 16.2078 62.6026 16.2779 62.4273 16.2779C62.1964 16.2779 61.9675 16.1707 61.9139 15.8717H63.1696C63.1696 15.8181 63.1696 15.7831 63.1696 15.7294C63.1861 15.1831 62.8665 14.8284 62.3902 14.8284ZM62.3902 15.148C62.6212 15.148 62.7799 15.2903 62.815 15.5542H61.9304C61.9655 15.3253 62.1243 15.148 62.3902 15.148ZM71.6108 15.715V14.1934H71.2397V15.0779C71.116 14.9191 70.9387 14.8305 70.7078 14.8305C70.2294 14.8305 69.8583 15.2016 69.8583 15.715C69.8583 16.2284 70.2294 16.5995 70.7078 16.5995C70.9552 16.5995 71.1325 16.5109 71.2397 16.3521V16.5645H71.6108V15.715ZM70.248 15.715C70.248 15.414 70.4418 15.1666 70.7614 15.1666C71.0624 15.1666 71.2748 15.3975 71.2748 15.715C71.2748 16.016 71.0624 16.2635 70.7614 16.2635C70.4418 16.2449 70.248 16.014 70.248 15.715ZM57.8232 15.715V14.8655H57.4521V15.0779C57.3284 14.9191 57.1511 14.8305 56.9201 14.8305C56.4418 14.8305 56.0706 15.2016 56.0706 15.715C56.0706 16.2284 56.4418 16.5995 56.9201 16.5995C57.1675 16.5995 57.3449 16.5109 57.4521 16.3521V16.5645H57.8232V15.715ZM56.4438 15.715C56.4438 15.414 56.6377 15.1666 56.9572 15.1666C57.2583 15.1666 57.4706 15.3975 57.4706 15.715C57.4706 16.016 57.2583 16.2635 56.9572 16.2635C56.6377 16.2449 56.4438 16.014 56.4438 15.715Z" fill="black"/>
<path d="M65.0811 1.96289H59.5059V11.9794H65.0811V1.96289Z" fill="#FF5A00"/>
<path d="M59.8763 6.97074C59.8763 4.93569 60.833 3.12951 62.301 1.9625C61.2206 1.11301 59.8577 0.599609 58.3711 0.599609C54.8495 0.599609 52 3.44909 52 6.97074C52 10.4924 54.8495 13.3419 58.3711 13.3419C59.8577 13.3419 61.2206 12.8285 62.301 11.979C60.8309 10.8285 59.8763 9.00579 59.8763 6.97074Z" fill="#EB001B"/>
<path d="M72.6018 6.97074C72.6018 10.4924 69.7523 13.3419 66.2307 13.3419C64.7441 13.3419 63.3812 12.8285 62.3008 11.979C63.7874 10.8099 64.7255 9.00579 64.7255 6.97074C64.7255 4.93569 63.7688 3.12951 62.3008 1.9625C63.3791 1.11301 64.742 0.599609 66.2286 0.599609C69.7523 0.599609 72.6018 3.46765 72.6018 6.97074Z" fill="#F79E1B"/>
</g>
<g clip-path="url(#clip4_18987_317801)">
<path d="M27.0728 2.01953C24.2328 2.01953 21.6947 3.49178 21.6947 6.21126C21.6947 9.33033 26.1959 9.54574 26.1959 11.1129C26.1959 11.7727 25.44 12.3633 24.1483 12.3633C22.3157 12.3633 20.9459 11.5381 20.9459 11.5381L20.3598 14.2828C20.3598 14.2828 21.9377 14.9799 24.0326 14.9799C27.1376 14.9799 29.5812 13.4356 29.5812 10.6692C29.5812 7.3732 25.0612 7.1642 25.0612 5.70997C25.0612 5.19306 25.6818 4.6269 26.9695 4.6269C28.4225 4.6269 29.6077 5.22709 29.6077 5.22709L30.1814 2.57648C30.1814 2.57648 28.8914 2.01953 27.0724 2.01953H27.0728ZM1.0884 2.21973L1.01953 2.61972C1.01953 2.61972 2.21431 2.83834 3.29057 3.27477C4.67633 3.77486 4.77483 4.06635 5.00826 4.97044L7.55116 14.7733H10.9601L16.2117 2.21973H12.8107L9.43622 10.7549L8.05926 3.51981C7.93314 2.69179 7.29331 2.21933 6.51054 2.21933H1.0888L1.0884 2.21973ZM17.5794 2.21973L14.9116 14.7733H18.1548L20.813 2.21973H17.5794ZM35.6676 2.21973C34.8857 2.21973 34.4713 2.63854 34.1674 3.37006L29.4159 14.7733H32.8168L33.4747 12.8726H37.618L38.018 14.7733H41.0189L38.4011 2.21973H35.6676ZM36.1101 5.61147L37.1183 10.3221H34.4176L36.1105 5.61147H36.1101Z" fill="#1434CB"/>
</g>
</g>
<defs>
<clipPath id="clip0_18987_317801">
<rect width="170" height="17" fill="white"/>
</clipPath>
<clipPath id="clip1_18987_317801">
<rect width="34.1009" height="14" fill="white" transform="translate(135 1.5)"/>
</clipPath>
<clipPath id="clip2_18987_317801">
<rect width="37.7953" height="18" fill="white" transform="translate(84 -1)"/>
</clipPath>
<clipPath id="clip3_18987_317801">
<rect width="20.6021" height="16" fill="white" transform="translate(52 0.599609)"/>
</clipPath>
<clipPath id="clip4_18987_317801">
<rect width="40.0394" height="13" fill="white" transform="translate(1 2)"/>
</clipPath>
</defs>
</svg>
