<svg width="248" height="17" viewBox="0 0 248 17" fill="none" xmlns="http://www.w3.org/2000/svg">
<g clip-path="url(#clip0_16707_230630)">
<g clip-path="url(#clip1_16707_230630)">
<path d="M41.459 2.08984V14.8733H43.0729V5.11464L50.8598 14.8733H52.2237V2.10772H50.6088V12.0467L42.7147 2.08984H41.459Z" fill="#010102"/>
<path d="M39.6638 2.08984H38.0488V14.8733H39.6638V2.08984Z" fill="#010102"/>
<path d="M26.0469 14.8733V2.10772H27.6618V9.1659L34.2282 2.08984H35.9687L30.855 7.72527L36.2554 14.8738H34.4971L29.8677 8.66185L27.6613 10.9666V14.8738H26.0469V14.8733Z" fill="#010102"/>
<path d="M9.48694 4.77301C9.34355 4.60532 9.15189 4.44294 8.91242 4.28684C8.67296 4.13074 8.40405 3.99011 8.1052 3.86398C7.80635 3.73784 7.47999 3.63587 7.12707 3.55807C6.77415 3.48026 6.40627 3.44112 6.02342 3.44112C5.0308 3.44112 4.30372 3.62717 3.84363 3.99929C3.38353 4.37141 3.15324 4.88175 3.15324 5.52933C3.15324 5.87777 3.2189 6.1658 3.35021 6.39342C3.48202 6.62152 3.68817 6.81677 3.96915 6.97866C4.25013 7.14104 4.59967 7.28216 5.01873 7.40201C5.43683 7.52234 5.93362 7.64848 6.50813 7.77993C7.16569 7.92346 7.76097 8.08922 8.293 8.27528C8.82504 8.46134 9.27934 8.69234 9.65688 8.96829C10.0335 9.24472 10.3207 9.58011 10.5177 9.97688C10.7147 10.3732 10.8136 10.8593 10.8136 11.4354C10.8136 12.0472 10.6934 12.5783 10.4549 13.0287C10.2155 13.4787 9.88959 13.8508 9.4768 14.1446C9.06402 14.4389 8.5764 14.6554 8.01444 14.7932C7.45247 14.9304 6.84174 15 6.18418 15C5.20316 15 4.27379 14.8468 3.39415 14.5409C2.51644 14.235 1.71791 13.7875 1 13.1993L1.7715 11.8307C1.96268 12.0346 2.21132 12.2386 2.51596 12.443C2.82108 12.647 3.16772 12.8301 3.55637 12.9925C3.94501 13.1549 4.36359 13.2868 4.8121 13.3888C5.26013 13.4907 5.72988 13.542 6.22039 13.542C7.129 13.542 7.83532 13.3796 8.33742 13.0558C8.83952 12.732 9.09057 12.2458 9.09057 11.5973C9.09057 11.2372 9.00995 10.9342 8.84869 10.6878C8.68696 10.4418 8.45088 10.2287 8.14044 10.0484C7.82953 9.86814 7.44378 9.70914 6.9832 9.57141C6.52262 9.43368 5.99928 9.29257 5.41317 9.14807C4.7672 8.99197 4.19896 8.82428 3.70893 8.64401C3.21841 8.46375 2.80853 8.24822 2.47975 7.99546C2.15097 7.74368 1.90233 7.43729 1.73529 7.07725C1.56728 6.71721 1.48424 6.28517 1.48424 5.78063C1.48424 5.16833 1.59769 4.62851 1.82509 4.16022C2.05248 3.69193 2.36967 3.29613 2.77618 2.97186C3.18269 2.64807 3.66741 2.4045 4.22937 2.2426C4.79182 2.08119 5.40158 2 6.05914 2C6.91995 2 7.69773 2.13193 8.39149 2.39628C9.08478 2.66063 9.7013 3.01439 10.2396 3.459L9.48694 4.77301Z" fill="#010102"/>
<path d="M18.5408 7.31783C18.5553 7.31059 18.5703 7.30382 18.5847 7.29705C18.7895 7.20282 19.012 7.14096 19.237 7.14579C19.4625 7.15062 19.6903 7.22746 19.853 7.38308C20.1171 7.63438 20.1688 8.03936 20.1345 8.40326C20.0799 8.98415 19.8395 9.5549 19.9129 10.145C19.9317 10.2967 19.9752 10.4514 20.0732 10.5683C20.1823 10.6978 20.3489 10.7694 20.5164 10.7926C20.7254 10.822 20.9398 10.7897 21.1464 10.7582C21.341 10.7288 21.536 10.6722 21.7335 10.7191C21.8132 10.7375 21.8885 10.7718 21.9681 10.7916C22.0671 10.8162 22.1661 10.8056 22.2578 10.7602C22.4437 10.6688 22.63 10.3276 22.6069 10.1184C22.5837 9.90769 22.3587 9.90092 22.2216 10.0048C22.1207 10.0817 22.041 10.1841 21.9372 10.2581C21.8643 10.3098 21.7784 10.3479 21.69 10.3504C21.4192 10.3581 21.2034 10.0812 21.0779 9.87289C21.0532 9.8323 21.0306 9.78735 21.0344 9.74096C21.0542 9.46888 21.578 9.43166 21.7615 9.47564C21.8778 9.50319 22.4644 9.77382 22.421 9.46114C22.4157 9.42055 22.3959 9.38382 22.3746 9.34854C22.2327 9.1156 22.0145 8.93969 21.8614 8.71352C21.6509 8.40326 21.4525 8.07319 21.2657 7.74795C21.2222 7.67256 21.1986 7.57542 21.242 7.49954C21.2734 7.44542 21.3376 7.41304 21.3989 7.41981C21.4622 7.42657 21.5182 7.47007 21.5814 7.46717C21.6736 7.46233 21.7325 7.35408 21.7205 7.26178C21.7026 7.12984 21.5814 6.98389 21.4945 6.88821C21.3917 6.77464 21.2729 6.67605 21.1599 6.57215C20.9412 6.37111 20.7177 6.17345 20.4613 6.0217C20.1118 5.81534 19.7309 5.66215 19.3384 5.56163C18.2705 5.28616 17.1547 5.38717 16.0887 5.60947C16.0178 5.62445 15.9473 5.64137 15.8773 5.66118C15.8135 5.67906 15.7377 5.72256 15.7522 5.80085C15.7595 5.84096 15.787 5.87382 15.8174 5.90185C15.8473 5.9294 15.8806 5.95308 15.9067 5.98401C15.9222 6.00237 16.0004 6.12125 15.9395 6.13285C15.9212 6.13672 15.9038 6.12464 15.8893 6.11401C15.6933 5.97192 15.4978 5.83274 15.282 5.72304C15.0884 5.62493 14.8277 5.49928 14.6061 5.49928C14.299 5.45337 13.9601 5.48769 13.6893 5.65055C13.5348 5.74334 13.4049 5.88542 13.3489 6.05746C13.2707 6.29668 13.3407 6.56055 13.4537 6.78527C13.5179 6.91382 13.598 7.03367 13.682 7.14966C13.7409 7.23085 13.9152 7.38694 13.8969 7.49954C13.8761 7.62471 13.5845 7.75326 13.4865 7.81947C13.0409 8.12007 12.5924 8.44627 12.1159 8.69564C12.0729 8.72029 12.0483 8.73189 12.0338 8.72657C12.0154 8.72029 12.0111 8.68984 12.0063 8.62992C11.999 8.54486 11.999 8.45981 12.0014 8.37475C12.0063 8.20367 12.027 8.03356 12.0555 7.86538C12.1748 7.15497 12.365 6.46486 12.6875 5.81873C14.0156 3.15638 17.0833 1.80467 19.9158 2.633C22.9168 3.51062 24.8079 6.46293 24.342 9.56505C24.0996 11.1801 23.3349 12.5067 22.0681 13.5337C21.0392 14.3678 19.7516 14.8458 18.4298 14.8888C18.0233 14.9023 17.6153 14.8748 17.2141 14.8052C17.1943 14.8023 17.174 14.7979 17.1576 14.7868C17.0939 14.7433 17.1296 14.5983 17.1282 14.5311C17.1262 14.4084 17.1272 14.2847 17.1291 14.1614C17.1402 13.6545 17.3223 13.1504 17.6187 12.7411C17.861 12.4057 18.185 12.1303 18.5534 11.9432C18.9806 11.7262 19.4678 11.7219 19.9361 11.7345C20.3667 11.7456 20.8939 11.82 21.2797 11.5827C21.3251 11.5547 21.3893 11.501 21.3439 11.4401C21.299 11.3812 21.1662 11.431 21.1117 11.4469C20.6047 11.5967 20.1582 11.46 19.7082 11.2261C19.4774 11.1062 19.3316 10.7892 19.2447 10.5558C19.1197 10.2208 19.1177 9.85163 19.2235 9.51189C19.3393 9.1388 19.5938 8.65746 19.322 8.29018C19.2288 8.16404 19.083 8.08527 18.9314 8.04806C18.7793 8.01036 18.6214 8.01133 18.4655 8.02051C18.3878 8.02486 18.3081 8.03163 18.2328 8.01181C18.157 7.992 18.0846 7.94174 18.0619 7.86683C18.0349 7.77694 18.0855 7.6827 18.1459 7.61118C18.2531 7.48263 18.3931 7.38984 18.5408 7.31783Z" fill="#FF3333"/>
<path d="M16.2503 11.3464C16.246 11.4378 16.1962 11.5272 16.1277 11.59C16.0456 11.6649 15.9399 11.7079 15.8332 11.7398C15.7076 11.777 15.5725 11.8007 15.4416 11.7722C15.361 11.7543 15.2823 11.7118 15.2379 11.6417C15.1833 11.5571 15.1862 11.4426 15.2316 11.3522C15.277 11.2618 15.3591 11.1942 15.4498 11.1502C15.6463 11.055 16.1957 10.9603 16.2469 11.2923C16.2503 11.3107 16.2508 11.3285 16.2503 11.3464Z" fill="#FF3333"/>
<path d="M15.228 7.96634C15.1252 7.96875 15.0243 7.95522 14.9518 7.92623C14.8292 7.8779 14.7307 7.74162 14.7708 7.61645C14.8591 7.33857 15.4515 7.28396 15.6355 7.47099C15.69 7.52608 15.7137 7.60968 15.7016 7.68652C15.6895 7.76336 15.6417 7.83344 15.5775 7.87693C15.4935 7.93396 15.3588 7.96344 15.228 7.96634Z" fill="#FF3333"/>
<path d="M12.623 10.062C12.5883 10.062 12.5545 10.0576 12.5217 10.0484C12.4106 10.0185 12.3136 9.91745 12.3165 9.80195C12.3179 9.75169 12.3372 9.70385 12.359 9.6589C12.3932 9.58786 12.4343 9.51875 12.4912 9.46462C12.6761 9.28968 13.1512 9.32593 13.1218 9.65842C13.1015 9.88894 12.8504 10.0629 12.623 10.062Z" fill="#FF3333"/>
<path d="M14.4037 10.804C14.3723 10.8045 14.3424 10.8026 14.3153 10.7987C14.2173 10.7832 14.1222 10.7354 14.0595 10.6585C13.9962 10.5812 13.9687 10.4734 13.9981 10.3778C14.0445 10.2246 14.2101 10.1728 14.3535 10.2076C14.4911 10.241 14.688 10.2748 14.7658 10.4097C14.9111 10.6653 14.6267 10.7992 14.4037 10.804Z" fill="#FF3333"/>
<path d="M16.4142 9.8371C16.3732 9.83855 16.3326 9.83614 16.2926 9.82985C16.1414 9.80521 15.9527 9.68245 15.9676 9.50654C15.9749 9.41617 16.0458 9.33981 16.1294 9.30502C16.2549 9.25137 16.4263 9.26491 16.5552 9.30357C16.6575 9.3345 16.7531 9.39587 16.8106 9.48625C16.842 9.53554 16.8613 9.59691 16.8429 9.65201C16.8062 9.76316 16.672 9.80327 16.5697 9.82019C16.5175 9.82937 16.4654 9.83517 16.4142 9.8371Z" fill="#FF3333"/>
<path d="M16.4617 13.4542C16.3294 13.4648 16.2106 13.4068 16.1677 13.2396C16.0702 12.8636 16.5307 12.909 16.7427 12.8931C16.8643 12.8839 16.9706 12.8936 16.9498 13.0439C16.9208 13.2444 16.6741 13.4372 16.4617 13.4542Z" fill="#FF3333"/>
<path d="M15.171 6.61622C15.0677 6.59157 14.9914 6.45384 14.9344 6.35767C14.8142 6.1547 14.5945 6.04693 14.4111 5.9121C14.2629 5.80336 14.5009 5.81012 14.5641 5.82414C14.7017 5.85555 14.8171 5.93916 14.931 6.01841C15.0595 6.1083 15.2178 6.15615 15.3318 6.2673C15.423 6.35622 15.4245 6.49154 15.3221 6.57224C15.2656 6.61622 15.2154 6.62685 15.171 6.61622Z" fill="#FF3333"/>
<path d="M16.1214 14.066C16.1214 14.0656 16.1214 14.0641 16.1214 14.0636C16.1093 13.8288 16.4376 14.0129 16.5101 14.0685C16.5429 14.0936 16.5757 14.1211 16.597 14.1569C16.6182 14.1927 16.6283 14.2381 16.6124 14.2767C16.5743 14.3715 16.4401 14.3362 16.372 14.3067C16.3087 14.2792 16.2469 14.2453 16.1962 14.1985C16.1586 14.1632 16.1258 14.1178 16.1214 14.066Z" fill="#FF3333"/>
<path d="M17.1309 6.78452C17.1956 6.93916 16.8528 6.97493 16.7746 6.96478C16.7249 6.95801 16.6718 6.94013 16.6471 6.89615C16.5255 6.67723 17.0498 6.59266 17.1309 6.78452Z" fill="#FF3333"/>
</g>
<path d="M66.5 3L66.5 14" stroke="#D2D2D2" stroke-linecap="round"/>
<g clip-path="url(#clip2_16707_230630)">
<path d="M217.234 3.30495C216.834 3.77783 216.195 4.15081 215.556 4.09753C215.476 3.45814 215.789 2.77878 216.155 2.35918C216.555 1.87298 217.254 1.52664 217.82 1.5C217.887 2.16603 217.627 2.81874 217.234 3.30495ZM217.814 4.22407C216.888 4.17079 216.095 4.75024 215.656 4.75024C215.209 4.75024 214.537 4.25071 213.804 4.26403C212.852 4.27735 211.966 4.81684 211.48 5.67602C210.48 7.39439 211.22 9.93863 212.186 11.3373C212.658 12.03 213.225 12.7892 213.971 12.7626C214.676 12.736 214.956 12.303 215.809 12.303C216.668 12.303 216.914 12.7626 217.66 12.7493C218.433 12.736 218.919 12.0566 219.392 11.3639C219.931 10.578 220.151 9.81208 220.165 9.77212C220.151 9.7588 218.673 9.19267 218.659 7.48763C218.646 6.06232 219.825 5.38297 219.878 5.34301C219.212 4.35728 218.173 4.25071 217.814 4.22407ZM223.162 2.29258V12.676H224.774V9.12607H227.005C229.043 9.12607 230.475 7.7274 230.475 5.70266C230.475 3.67793 229.069 2.29258 227.058 2.29258H223.162ZM224.774 3.65128H226.632C228.03 3.65128 228.83 4.39724 228.83 5.70932C228.83 7.02141 228.03 7.77402 226.625 7.77402H224.774V3.65128ZM233.419 12.7559C234.431 12.7559 235.37 12.2431 235.796 11.4305H235.83V12.676H237.322V7.50761C237.322 6.00904 236.123 5.04329 234.278 5.04329C232.566 5.04329 231.301 6.02236 231.254 7.36774H232.706C232.826 6.72835 233.419 6.30875 234.231 6.30875C235.217 6.30875 235.77 6.76832 235.77 7.61418V8.18696L233.758 8.30685C231.887 8.42008 230.874 9.18601 230.874 10.5181C230.874 11.8635 231.92 12.7559 233.419 12.7559ZM233.852 11.5238C232.992 11.5238 232.446 11.1108 232.446 10.4781C232.446 9.82541 232.972 9.44577 233.978 9.38582L235.77 9.2726V9.85871C235.77 10.8311 234.944 11.5238 233.852 11.5238ZM239.313 15.5C240.885 15.5 241.624 14.9006 242.27 13.0823L245.101 5.1432H243.462L241.564 11.2774H241.531L239.633 5.1432H237.948L240.678 12.7027L240.532 13.1622C240.285 13.9415 239.886 14.2412 239.173 14.2412C239.047 14.2412 238.8 14.2279 238.7 14.2146V15.46C238.794 15.4867 239.193 15.5 239.313 15.5Z" fill="black"/>
</g>
<g clip-path="url(#clip3_16707_230630)">
<path d="M177.859 8.30643V12.7001H176.441V1.83398H180.126C181.024 1.83398 181.874 2.16469 182.536 2.77887C183.197 3.3458 183.528 4.19619 183.528 5.09383C183.528 5.99147 183.197 6.79461 182.536 7.40879C181.874 8.02296 181.071 8.35367 180.126 8.35367L177.859 8.30643ZM177.859 3.15682V6.93635H180.221C180.741 6.93635 181.26 6.74737 181.591 6.36942C182.347 5.66076 182.347 4.47965 181.638 3.77099L181.591 3.72375C181.213 3.3458 180.741 3.10958 180.221 3.15682H177.859Z" fill="#5F6368"/>
<path d="M186.787 5.04688C187.827 5.04688 188.63 5.33034 189.244 5.89727C189.858 6.4642 190.142 7.2201 190.142 8.16498V12.7004H188.819V11.661H188.771C188.205 12.5114 187.401 12.9366 186.456 12.9366C185.653 12.9366 184.945 12.7004 184.378 12.228C183.858 11.7555 183.527 11.0941 183.527 10.3855C183.527 9.62955 183.811 9.01538 184.378 8.54294C184.945 8.0705 185.748 7.88152 186.693 7.88152C187.543 7.88152 188.205 8.02325 188.724 8.35396V8.02325C188.724 7.55081 188.535 7.07837 188.157 6.79491C187.779 6.4642 187.307 6.27522 186.787 6.27522C185.984 6.27522 185.37 6.60593 184.945 7.26735L183.716 6.51144C184.472 5.51932 185.464 5.04688 186.787 5.04688ZM184.992 10.4327C184.992 10.8107 185.181 11.1414 185.464 11.3303C185.795 11.5666 186.173 11.7083 186.551 11.7083C187.118 11.7083 187.685 11.4721 188.11 11.0469C188.582 10.6217 188.819 10.102 188.819 9.53506C188.393 9.20435 187.779 9.01538 186.976 9.01538C186.409 9.01538 185.937 9.15711 185.559 9.44058C185.181 9.6768 184.992 10.0075 184.992 10.4327Z" fill="#5F6368"/>
<path d="M197.796 5.2832L193.119 16.0076H191.702L193.45 12.2753L190.379 5.33045H191.891L194.111 10.669H194.158L196.332 5.33045H197.796V5.2832Z" fill="#5F6368"/>
<path d="M172.236 7.36153C172.236 6.93633 172.189 6.51113 172.142 6.08594H166.236V8.49539H169.591C169.449 9.25129 169.024 9.95995 168.362 10.3852V11.9442H170.394C171.575 10.8576 172.236 9.25129 172.236 7.36153Z" fill="#4285F4"/>
<path d="M166.237 13.4575C167.938 13.4575 169.355 12.8905 170.394 11.9457L168.363 10.3866C167.796 10.7645 167.087 11.0008 166.237 11.0008C164.631 11.0008 163.213 9.91415 162.741 8.40234H160.662V10.0086C161.749 12.1346 163.875 13.4575 166.237 13.4575Z" fill="#34A853"/>
<path d="M162.74 8.40247C162.457 7.64656 162.457 6.79617 162.74 5.99302V4.38672H160.662C159.764 6.13475 159.764 8.21349 160.662 10.0088L162.74 8.40247Z" fill="#FBBC04"/>
<path d="M166.168 3.44166C167.066 3.44166 167.916 3.77237 168.578 4.38654L170.373 2.59126C169.239 1.55189 167.727 0.93772 166.215 0.984964C163.853 0.984964 161.68 2.3078 160.641 4.43378L162.719 6.04008C163.145 4.52827 164.562 3.44166 166.168 3.44166Z" fill="#EA4335"/>
</g>
<g clip-path="url(#clip4_16707_230630)">
<path d="M131.735 16.5645V15.5026C131.735 15.0965 131.487 14.8305 131.062 14.8305C130.85 14.8305 130.619 14.9006 130.46 15.1315C130.337 14.9377 130.159 14.8305 129.893 14.8305C129.716 14.8305 129.539 14.8841 129.398 15.0779V14.8655H129.027V16.5645H129.398V15.6263C129.398 15.3253 129.557 15.1831 129.805 15.1831C130.052 15.1831 130.176 15.3418 130.176 15.6263V16.5645H130.547V15.6263C130.547 15.3253 130.724 15.1831 130.953 15.1831C131.201 15.1831 131.324 15.3418 131.324 15.6263V16.5645H131.735ZM137.24 14.8655H136.638V14.3521H136.267V14.8655H135.93V15.2016H136.267V15.981C136.267 16.3707 136.425 16.5995 136.85 16.5995C137.009 16.5995 137.186 16.5459 137.31 16.4758L137.203 16.1562C137.095 16.2263 136.972 16.2449 136.883 16.2449C136.706 16.2449 136.636 16.1377 136.636 15.9624V15.2016H137.238V14.8655H137.24ZM140.39 14.8284C140.178 14.8284 140.036 14.9356 139.947 15.0758V14.8635H139.576V16.5624H139.947V15.6057C139.947 15.3233 140.071 15.1624 140.302 15.1624C140.372 15.1624 140.46 15.181 140.532 15.1975L140.64 14.8428C140.565 14.8284 140.46 14.8284 140.39 14.8284ZM135.629 15.0057C135.452 14.882 135.205 14.8284 134.939 14.8284C134.514 14.8284 134.231 15.0408 134.231 15.3769C134.231 15.6593 134.444 15.8202 134.815 15.8717L134.992 15.8903C135.186 15.9253 135.293 15.9789 135.293 16.0676C135.293 16.1913 135.151 16.28 134.904 16.28C134.656 16.28 134.46 16.1913 134.337 16.1026L134.159 16.3851C134.353 16.5274 134.619 16.5975 134.885 16.5975C135.38 16.5975 135.664 16.3666 135.664 16.049C135.664 15.748 135.434 15.5892 135.081 15.5356L134.904 15.5171C134.745 15.4985 134.621 15.4635 134.621 15.3583C134.621 15.2346 134.745 15.1645 134.941 15.1645C135.153 15.1645 135.365 15.2532 135.473 15.3068L135.629 15.0057ZM145.504 14.8284C145.291 14.8284 145.149 14.9356 145.06 15.0758V14.8635H144.689V16.5624H145.06V15.6057C145.06 15.3233 145.184 15.1624 145.415 15.1624C145.485 15.1624 145.574 15.181 145.646 15.1975L145.753 14.847C145.681 14.8284 145.576 14.8284 145.504 14.8284ZM140.761 15.715C140.761 16.2284 141.116 16.5995 141.664 16.5995C141.912 16.5995 142.089 16.5459 142.267 16.4057L142.089 16.1047C141.947 16.2119 141.807 16.2635 141.646 16.2635C141.345 16.2635 141.132 16.0511 141.132 15.715C141.132 15.3954 141.345 15.1831 141.646 15.1666C141.805 15.1666 141.947 15.2202 142.089 15.3253L142.267 15.0243C142.089 14.882 141.912 14.8305 141.664 14.8305C141.116 14.8284 140.761 15.2016 140.761 15.715ZM144.194 15.715V14.8655H143.823V15.0779C143.7 14.9191 143.522 14.8305 143.291 14.8305C142.813 14.8305 142.442 15.2016 142.442 15.715C142.442 16.2284 142.813 16.5995 143.291 16.5995C143.539 16.5995 143.716 16.5109 143.823 16.3521V16.5645H144.194V15.715ZM142.831 15.715C142.831 15.414 143.025 15.1666 143.345 15.1666C143.646 15.1666 143.858 15.3975 143.858 15.715C143.858 16.016 143.646 16.2635 143.345 16.2635C143.027 16.2449 142.831 16.014 142.831 15.715ZM138.39 14.8284C137.895 14.8284 137.541 15.1831 137.541 15.7129C137.541 16.2449 137.895 16.5975 138.409 16.5975C138.656 16.5975 138.904 16.5274 139.1 16.3666L138.922 16.1006C138.78 16.2078 138.603 16.2779 138.427 16.2779C138.196 16.2779 137.968 16.1707 137.914 15.8717H139.17C139.17 15.8181 139.17 15.7831 139.17 15.7294C139.186 15.1831 138.867 14.8284 138.39 14.8284ZM138.39 15.148C138.621 15.148 138.78 15.2903 138.815 15.5542H137.93C137.965 15.3253 138.124 15.148 138.39 15.148ZM147.611 15.715V14.1934H147.24V15.0779C147.116 14.9191 146.939 14.8305 146.708 14.8305C146.229 14.8305 145.858 15.2016 145.858 15.715C145.858 16.2284 146.229 16.5995 146.708 16.5995C146.955 16.5995 147.132 16.5109 147.24 16.3521V16.5645H147.611V15.715ZM146.248 15.715C146.248 15.414 146.442 15.1666 146.761 15.1666C147.062 15.1666 147.275 15.3975 147.275 15.715C147.275 16.016 147.062 16.2635 146.761 16.2635C146.442 16.2449 146.248 16.014 146.248 15.715ZM133.823 15.715V14.8655H133.452V15.0779C133.328 14.9191 133.151 14.8305 132.92 14.8305C132.442 14.8305 132.071 15.2016 132.071 15.715C132.071 16.2284 132.442 16.5995 132.92 16.5995C133.168 16.5995 133.345 16.5109 133.452 16.3521V16.5645H133.823V15.715ZM132.444 15.715C132.444 15.414 132.638 15.1666 132.957 15.1666C133.258 15.1666 133.471 15.3975 133.471 15.715C133.471 16.016 133.258 16.2635 132.957 16.2635C132.638 16.2449 132.444 16.014 132.444 15.715Z" fill="black"/>
<path d="M141.081 1.96289H135.506V11.9794H141.081V1.96289Z" fill="#FF5A00"/>
<path d="M135.876 6.97074C135.876 4.93569 136.833 3.12951 138.301 1.9625C137.221 1.11301 135.858 0.599609 134.371 0.599609C130.849 0.599609 128 3.44909 128 6.97074C128 10.4924 130.849 13.3419 134.371 13.3419C135.858 13.3419 137.221 12.8285 138.301 11.979C136.831 10.8285 135.876 9.00579 135.876 6.97074Z" fill="#EB001B"/>
<path d="M148.602 6.97074C148.602 10.4924 145.752 13.3419 142.231 13.3419C140.744 13.3419 139.381 12.8285 138.301 11.979C139.787 10.8099 140.726 9.00579 140.726 6.97074C140.726 4.93569 139.769 3.12951 138.301 1.9625C139.379 1.11301 140.742 0.599609 142.229 0.599609C145.752 0.599609 148.602 3.46765 148.602 6.97074Z" fill="#F79E1B"/>
</g>
<g clip-path="url(#clip5_16707_230630)">
<path d="M103.073 2.01953C100.233 2.01953 97.6947 3.49178 97.6947 6.21126C97.6947 9.33033 102.196 9.54574 102.196 11.1129C102.196 11.7727 101.44 12.3633 100.148 12.3633C98.3157 12.3633 96.9459 11.5381 96.9459 11.5381L96.3598 14.2828C96.3598 14.2828 97.9377 14.9799 100.033 14.9799C103.138 14.9799 105.581 13.4356 105.581 10.6692C105.581 7.3732 101.061 7.1642 101.061 5.70997C101.061 5.19306 101.682 4.6269 102.969 4.6269C104.423 4.6269 105.608 5.22709 105.608 5.22709L106.181 2.57648C106.181 2.57648 104.891 2.01953 103.072 2.01953H103.073ZM77.0884 2.21973L77.0195 2.61972C77.0195 2.61972 78.2143 2.83834 79.2906 3.27477C80.6763 3.77486 80.7748 4.06635 81.0083 4.97044L83.5512 14.7733H86.9601L92.2117 2.21973H88.8107L85.4362 10.7549L84.0593 3.51981C83.9331 2.69179 83.2933 2.21933 82.5105 2.21933H77.0888L77.0884 2.21973ZM93.5794 2.21973L90.9116 14.7733H94.1548L96.813 2.21973H93.5794ZM111.668 2.21973C110.886 2.21973 110.471 2.63854 110.167 3.37006L105.416 14.7733H108.817L109.475 12.8726H113.618L114.018 14.7733H117.019L114.401 2.21973H111.668ZM112.11 5.61147L113.118 10.3221H110.418L112.11 5.61147H112.11Z" fill="#1434CB"/>
</g>
</g>
<defs>
<clipPath id="clip0_16707_230630">
<rect width="248" height="17" fill="white"/>
</clipPath>
<clipPath id="clip1_16707_230630">
<rect width="51.2239" height="13" fill="white" transform="translate(1 2)"/>
</clipPath>
<clipPath id="clip2_16707_230630">
<rect width="34.1009" height="14" fill="white" transform="translate(211 1.5)"/>
</clipPath>
<clipPath id="clip3_16707_230630">
<rect width="37.7953" height="18" fill="white" transform="translate(160 -1)"/>
</clipPath>
<clipPath id="clip4_16707_230630">
<rect width="20.6021" height="16" fill="white" transform="translate(128 0.599609)"/>
</clipPath>
<clipPath id="clip5_16707_230630">
<rect width="40.0394" height="13" fill="white" transform="translate(77 2)"/>
</clipPath>
</defs>
</svg>
